<mxfile host="app.diagrams.net" modified="2021-09-21T08:25:12.109Z" agent="5.0 (Windows NT 10.0; Win64; x64) AppleWebKit/537.36 (KHTML, like Gecko) Chrome/93.0.4577.82 Safari/537.36" etag="_gzl-IbIlFDewNvoT9-u" version="15.2.9" type="github">
  <diagram id="L7czAKrqenS6D8Z_z1v3" name="Page-1">
    <mxGraphModel dx="1422" dy="800" grid="1" gridSize="10" guides="1" tooltips="1" connect="1" arrows="1" fold="1" page="1" pageScale="1" pageWidth="827" pageHeight="1169" math="0" shadow="0">
      <root>
        <mxCell id="0" />
        <mxCell id="1" parent="0" />
        <mxCell id="cKD_Gf6HNS48-DaTeYyn-3" style="edgeStyle=orthogonalEdgeStyle;rounded=0;orthogonalLoop=1;jettySize=auto;html=1;exitX=0.5;exitY=1;exitDx=0;exitDy=0;entryX=0.5;entryY=0;entryDx=0;entryDy=0;" edge="1" parent="1" source="cKD_Gf6HNS48-DaTeYyn-1" target="cKD_Gf6HNS48-DaTeYyn-2">
          <mxGeometry relative="1" as="geometry" />
        </mxCell>
        <mxCell id="cKD_Gf6HNS48-DaTeYyn-1" value="Input Speed Array and Waypoints" style="rounded=0;whiteSpace=wrap;html=1;" vertex="1" parent="1">
          <mxGeometry x="180" y="140" width="190" height="60" as="geometry" />
        </mxCell>
        <mxCell id="cKD_Gf6HNS48-DaTeYyn-2" value="Component Initialization" style="rounded=0;whiteSpace=wrap;html=1;" vertex="1" parent="1">
          <mxGeometry x="77.5" y="230" width="385" height="60" as="geometry" />
        </mxCell>
        <mxCell id="cKD_Gf6HNS48-DaTeYyn-4" style="edgeStyle=orthogonalEdgeStyle;rounded=0;orthogonalLoop=1;jettySize=auto;html=1;" edge="1" parent="1" source="cKD_Gf6HNS48-DaTeYyn-2" target="cKD_Gf6HNS48-DaTeYyn-2">
          <mxGeometry relative="1" as="geometry" />
        </mxCell>
      </root>
    </mxGraphModel>
  </diagram>
</mxfile>
